<svg width="1920" height="1920" viewBox="0 0 1920 1920" fill="none" xmlns="http://www.w3.org/2000/svg">
<g clip-path="url(#clip0_4777_370)">
<mask id="mask0_4777_370" style="mask-type:luminance" maskUnits="userSpaceOnUse" x="0" y="0" width="1920" height="1920">
<path d="M1920 0H0V1920H1920V0Z" fill="white"/>
</mask>
<g mask="url(#mask0_4777_370)">
<path d="M1920 0H0V1920H1920V0Z" fill="white"/>
<path d="M567.381 441C574.621 445.827 581.693 454.198 587.997 460.356C606.932 479.014 625.699 497.854 644.274 516.874L706.71 579.735C720.53 593.597 734.831 607.137 747.594 621.994C764.308 606.604 783.724 592.97 801.554 578.798C843.014 545.78 884.871 513.237 927.074 481.178C891.161 545.683 851.598 608.21 814.293 671.939L948.002 806.771C997.844 856.751 1048.3 906.332 1096.1 958.277C1123.89 989.076 1151.34 1020.19 1178.43 1051.6C1260.63 1145.38 1341.72 1240.12 1421.7 1335.79C1427.95 1343.03 1434.09 1350.3 1440 1357.82C1425.66 1380.53 1409.57 1402.26 1393.89 1424.06C1380.64 1442.49 1367.74 1461.35 1353.37 1478.93C1313.42 1442.08 1276.56 1400.49 1239.03 1361.15L1007.57 1116.24C872.18 975.031 739.77 830.97 610.445 684.179L526.408 590.335C510.691 572.683 494.433 555.17 480 536.443C490.926 522.074 504.41 508.885 516.609 495.552C533.335 477.266 549.743 458.418 567.381 441Z" fill="#3337AD"/>
</g>
</g>
<defs>
<clipPath id="clip0_4777_370">
<rect width="1920" height="1920" rx="300" fill="white"/>
</clipPath>
</defs>
</svg>
